<svg width="48" height="48" viewBox="0 0 48 48" fill="none" xmlns="http://www.w3.org/2000/svg">
<path d="M48 23.3825C48 36.2954 37.4505 46.7635 24.4343 46.7635C20.3038 46.7635 16.4236 45.707 13.0459 43.8569L0 48L4.25265 35.4518C2.10832 31.9301 0.873382 27.7948 0.873382 23.381C0.874947 10.4681 11.4213 0 24.4375 0C37.4521 0.0031304 48 10.4696 48 23.3825ZM24.4328 3.72831C13.5092 3.72831 4.6236 12.5466 4.6236 23.3872C4.6236 27.6884 6.02602 31.6703 8.3973 34.9102L5.92428 42.2088L13.5343 39.7905C16.6647 41.8441 20.4102 43.0399 24.4328 43.0399C35.3563 43.0399 44.2451 34.2231 44.2451 23.3825C44.2482 12.5466 35.3579 3.72831 24.4328 3.72831ZM36.3346 28.7684C36.1874 28.532 35.8024 28.388 35.2264 28.1C34.652 27.812 31.808 26.4268 31.2805 26.239C30.7484 26.0465 30.3633 25.9495 29.9783 26.5239C29.5979 27.0983 28.4898 28.388 28.1501 28.7731C27.8136 29.1566 27.4771 29.2051 26.8995 28.9218C26.322 28.6306 24.4594 28.0296 22.2525 26.0778C20.5354 24.5564 19.3756 22.6829 19.0407 22.1085C18.701 21.5356 19.0062 21.2257 19.2927 20.9408C19.5509 20.6826 19.8702 20.2709 20.1598 19.9344C20.4493 19.601 20.5448 19.3647 20.7373 18.9812C20.9267 18.5977 20.8313 18.2643 20.6888 17.9748C20.5448 17.6868 19.3913 14.8694 18.9076 13.7221C18.4271 12.5764 17.9466 12.7658 17.6085 12.7658C17.272 12.7658 16.8869 12.7188 16.5019 12.7188C16.1169 12.7188 15.4908 12.8581 14.9633 13.4325C14.4358 14.007 12.9426 15.3922 12.9426 18.2127C12.9426 21.0363 15.0103 23.7582 15.2998 24.1401C15.591 24.5204 19.2974 30.4979 25.1684 32.7925C31.0426 35.0855 31.0426 34.3201 32.1007 34.2231C33.1619 34.1261 35.5191 32.8379 35.998 31.5012C36.4801 30.1583 36.4801 29.0079 36.3346 28.7684Z" fill="#235952"/>
</svg>
