<svg width="167" height="120" viewBox="0 0 167 120" fill="none" xmlns="http://www.w3.org/2000/svg">
<path d="M151.743 17.1428C153.321 17.1428 154.6 15.8636 154.6 14.2856C154.6 12.7077 153.321 11.4285 151.743 11.4285C150.165 11.4285 148.886 12.7077 148.886 14.2856C148.886 15.8636 150.165 17.1428 151.743 17.1428Z" fill="black"/>
<path d="M140.314 17.1428C141.892 17.1428 143.171 15.8636 143.171 14.2856C143.171 12.7077 141.892 11.4285 140.314 11.4285C138.736 11.4285 137.457 12.7077 137.457 14.2856C137.457 15.8636 138.736 17.1428 140.314 17.1428Z" fill="black"/>
<path d="M128.886 17.1428C130.464 17.1428 131.743 15.8636 131.743 14.2856C131.743 12.7077 130.464 11.4285 128.886 11.4285C127.308 11.4285 126.029 12.7077 126.029 14.2856C126.029 15.8636 127.308 17.1428 128.886 17.1428Z" fill="black"/>
<path fill-rule="evenodd" clip-rule="evenodd" d="M8.88588 120H157.457C162.192 120 166.029 116.163 166.029 111.429V8.57143C166.029 3.83714 162.192 0 157.457 0H8.88588C4.1516 0 0.314453 3.83714 0.314453 8.57143V111.429C0.314453 116.163 4.1516 120 8.88588 120ZM160.314 28.5714V111.429C160.314 113.006 159.034 114.286 157.457 114.286H8.88588C7.30874 114.286 6.02874 113.006 6.02874 111.429V28.5714H160.314ZM160.314 22.8571H6.02874V8.57143C6.02874 6.99429 7.30874 5.71429 8.88588 5.71429H157.457C159.034 5.71429 160.314 6.99429 160.314 8.57143V22.8571Z" fill="black"/>
<path fill-rule="evenodd" clip-rule="evenodd" d="M40.3146 42.8569C24.546 42.8569 11.7432 55.6598 11.7432 71.4284C11.7432 87.1969 24.546 99.9998 40.3146 99.9998C56.0832 99.9998 68.886 87.1969 68.886 71.4284C68.886 55.6598 56.0832 42.8569 40.3146 42.8569ZM30.7203 87.0455C29.1975 87.6655 27.6689 88.4341 26.1375 89.3541C28.6346 91.3312 31.5517 92.7998 34.7346 93.5998C33.166 91.4112 31.8289 89.2255 30.7203 87.0455ZM50.0489 87.0769C48.946 89.2455 47.6032 91.4084 46.0232 93.5655C49.1603 92.7569 52.0374 91.2998 54.5032 89.3455C53.0232 88.4484 51.5374 87.6941 50.0489 87.0769ZM44.4603 85.4341C41.7575 84.9627 39.0432 84.9569 36.3174 85.4255C37.4289 87.4712 38.7775 89.5255 40.3517 91.5827C41.9689 89.5369 43.3375 87.4855 44.4603 85.4341ZM26.846 74.2855H17.6346C18.1403 78.3369 19.7089 82.0569 22.0489 85.1626C24.1975 83.7798 26.3432 82.6398 28.4775 81.7427C27.6346 79.2512 27.0917 76.7655 26.846 74.2855ZM62.9946 74.2855H53.826C53.6146 76.7826 53.1003 79.2769 52.2775 81.7684C54.386 82.6626 56.4889 83.7941 58.586 85.1569C60.9232 82.0512 62.4889 78.3312 62.9946 74.2855ZM48.086 74.2855H32.5946C32.8232 76.1826 33.2632 78.0826 33.9117 79.9855C38.2489 78.9941 42.5603 79.0055 46.846 79.9941C47.4746 78.0941 47.8889 76.1941 48.086 74.2855ZM22.0432 57.6998C19.706 60.8055 18.1403 64.5255 17.6346 68.5712H26.8032C27.0146 66.0741 27.5289 63.5798 28.3517 61.0884C26.2432 60.1941 24.1403 59.0626 22.0432 57.6998ZM33.7832 62.8626C33.1546 64.7626 32.7403 66.6626 32.5432 68.5712H48.0346C47.806 66.6741 47.366 64.7741 46.7174 62.8712C42.3803 63.8627 38.0689 63.8512 33.7832 62.8626ZM58.5803 57.6941C56.4317 59.0769 54.286 60.2169 52.1517 61.1141C52.9946 63.6055 53.5375 66.0912 53.7832 68.5712H62.9946C62.4889 64.5198 60.9203 60.7998 58.5803 57.6941ZM40.2774 51.2741C38.6603 53.3198 37.2917 55.3712 36.1689 57.4226C38.8717 57.8941 41.586 57.8998 44.3117 57.4312C43.2003 55.3855 41.8517 53.3312 40.2774 51.2741ZM45.8946 49.2569C47.4632 51.4455 48.8003 53.6312 49.9089 55.8112C51.4317 55.1912 52.9603 54.4226 54.4917 53.5026C51.9946 51.5255 49.0774 50.0569 45.8946 49.2569ZM34.606 49.2912C31.4689 50.0998 28.5917 51.5569 26.126 53.5112C27.606 54.4084 29.0917 55.1627 30.5803 55.7798C31.6832 53.6112 33.026 51.4484 34.606 49.2912Z" fill="black"/>
<path fill-rule="evenodd" clip-rule="evenodd" d="M74.6228 60.3545L77.4799 83.2117C77.6399 84.506 78.657 85.526 79.9485 85.6917C81.2428 85.8574 82.4828 85.1288 82.9656 83.9174L86.0285 76.266L89.0913 83.9174C89.5742 85.1288 90.8142 85.8574 92.1085 85.6917C93.3999 85.526 94.417 84.506 94.577 83.2117L97.4342 60.3545C97.6313 58.7888 96.5199 57.3603 94.9542 57.166C93.3885 56.9688 91.9599 58.0803 91.7656 59.646L90.2828 71.5117L88.6799 67.5117C88.2485 66.426 87.197 65.7145 86.0285 65.7145C84.8599 65.7145 83.8085 66.426 83.377 67.5117L81.7742 71.5117L80.2913 59.646C80.097 58.0803 78.6685 56.9688 77.1028 57.166C75.537 57.3603 74.4256 58.7888 74.6228 60.3545Z" fill="black"/>
<path fill-rule="evenodd" clip-rule="evenodd" d="M103.195 60.3545L106.052 83.2117C106.212 84.506 107.229 85.526 108.52 85.6917C109.815 85.8574 111.055 85.1288 111.537 83.9174L114.6 76.266L117.663 83.9174C118.146 85.1288 119.386 85.8574 120.68 85.6917C121.972 85.526 122.989 84.506 123.149 83.2117L126.006 60.3545C126.203 58.7888 125.092 57.3603 123.526 57.166C121.96 56.9688 120.532 58.0803 120.337 59.646L118.855 71.5117L117.252 67.5117C116.82 66.426 115.769 65.7145 114.6 65.7145C113.432 65.7145 112.38 66.426 111.949 67.5117L110.346 71.5117L108.863 59.646C108.669 58.0803 107.24 56.9688 105.675 57.166C104.109 57.3603 102.997 58.7888 103.195 60.3545Z" fill="black"/>
<path fill-rule="evenodd" clip-rule="evenodd" d="M131.766 60.3545L134.623 83.2117C134.783 84.506 135.801 85.526 137.092 85.6917C138.386 85.8574 139.626 85.1288 140.109 83.9174L143.172 76.266L146.235 83.9174C146.718 85.1288 147.958 85.8574 149.252 85.6917C150.543 85.526 151.561 84.506 151.721 83.2117L154.578 60.3545C154.775 58.7888 153.663 57.3603 152.098 57.166C150.532 56.9688 149.103 58.0803 148.909 59.646L147.426 71.5117L145.823 67.5117C145.392 66.426 144.341 65.7145 143.172 65.7145C142.003 65.7145 140.952 66.426 140.521 67.5117L138.918 71.5117L137.435 59.646C137.241 58.0803 135.812 56.9688 134.246 57.166C132.681 57.3603 131.569 58.7888 131.766 60.3545Z" fill="black"/>
</svg>
