<svg width="117" height="87" viewBox="0 0 117 87" fill="none" xmlns="http://www.w3.org/2000/svg">
<path d="M109.655 12.4138C110.798 12.4138 111.724 11.4875 111.724 10.3448C111.724 9.20219 110.798 8.27588 109.655 8.27588C108.512 8.27588 107.586 9.20219 107.586 10.3448C107.586 11.4875 108.512 12.4138 109.655 12.4138Z" fill="black"/>
<path d="M101.38 12.4138C102.522 12.4138 103.448 11.4875 103.448 10.3448C103.448 9.20219 102.522 8.27588 101.38 8.27588C100.237 8.27588 99.3105 9.20219 99.3105 10.3448C99.3105 11.4875 100.237 12.4138 101.38 12.4138Z" fill="black"/>
<path d="M93.1031 12.4138C94.2458 12.4138 95.1721 11.4875 95.1721 10.3448C95.1721 9.20219 94.2458 8.27588 93.1031 8.27588C91.9605 8.27588 91.0342 9.20219 91.0342 10.3448C91.0342 11.4875 91.9605 12.4138 93.1031 12.4138Z" fill="black"/>
<path fill-rule="evenodd" clip-rule="evenodd" d="M6.2069 86.8965H113.793C117.221 86.8965 120 84.1179 120 80.6897V6.2069C120 2.77862 117.221 0 113.793 0H6.2069C2.77862 0 0 2.77862 0 6.2069V80.6897C0 84.1179 2.77862 86.8965 6.2069 86.8965ZM115.862 20.6897V80.6897C115.862 81.8317 114.935 82.7586 113.793 82.7586H6.2069C5.06483 82.7586 4.13793 81.8317 4.13793 80.6897V20.6897H115.862ZM115.862 16.5517H4.13793V6.2069C4.13793 5.06483 5.06483 4.13793 6.2069 4.13793H113.793C114.935 4.13793 115.862 5.06483 115.862 6.2069V16.5517Z" fill="black"/>
<path fill-rule="evenodd" clip-rule="evenodd" d="M68.276 33.1035H107.586C108.728 33.1035 109.655 32.1766 109.655 31.0345C109.655 29.8925 108.728 28.9656 107.586 28.9656H68.276C67.1339 28.9656 66.207 29.8925 66.207 31.0345C66.207 32.1766 67.1339 33.1035 68.276 33.1035Z" fill="black"/>
<path fill-rule="evenodd" clip-rule="evenodd" d="M68.276 41.3793H101.379C102.522 41.3793 103.448 40.4524 103.448 39.3103C103.448 38.1682 102.522 37.2413 101.379 37.2413H68.276C67.1339 37.2413 66.207 38.1682 66.207 39.3103C66.207 40.4524 67.1339 41.3793 68.276 41.3793Z" fill="black"/>
<path fill-rule="evenodd" clip-rule="evenodd" d="M68.276 49.6551H109.655C110.797 49.6551 111.724 48.7282 111.724 47.5862C111.724 46.4441 110.797 45.5172 109.655 45.5172H68.276C67.1339 45.5172 66.207 46.4441 66.207 47.5862C66.207 48.7282 67.1339 49.6551 68.276 49.6551Z" fill="black"/>
<path fill-rule="evenodd" clip-rule="evenodd" d="M68.276 57.931H87.9312C89.0732 57.931 90.0001 57.0041 90.0001 55.8621C90.0001 54.72 89.0732 53.7931 87.9312 53.7931H68.276C67.1339 53.7931 66.207 54.72 66.207 55.8621C66.207 57.0041 67.1339 57.931 68.276 57.931Z" fill="black"/>
<path fill-rule="evenodd" clip-rule="evenodd" d="M68.276 66.2069H107.586C108.728 66.2069 109.655 65.28 109.655 64.1379C109.655 62.9959 108.728 62.069 107.586 62.069H68.276C67.1339 62.069 66.207 62.9959 66.207 64.1379C66.207 65.28 67.1339 66.2069 68.276 66.2069Z" fill="black"/>
<path fill-rule="evenodd" clip-rule="evenodd" d="M68.276 74.4828H93.1036C94.2457 74.4828 95.1725 73.5559 95.1725 72.4138C95.1725 71.2717 94.2457 70.3448 93.1036 70.3448H68.276C67.1339 70.3448 66.207 71.2717 66.207 72.4138C66.207 73.5559 67.1339 74.4828 68.276 74.4828Z" fill="black"/>
<path fill-rule="evenodd" clip-rule="evenodd" d="M35.1719 24.8276C20.3271 24.8276 8.27539 36.8794 8.27539 51.7242C8.27539 66.569 20.3271 78.6207 35.1719 78.6207C50.0168 78.6207 62.0685 66.569 62.0685 51.7242C62.0685 36.8794 50.0168 24.8276 35.1719 24.8276ZM57.7878 49.1628C57.883 50.0028 57.9306 50.8573 57.9306 51.7242C57.9306 64.2849 47.7326 74.4828 35.1719 74.4828C30.494 74.4828 26.145 73.0676 22.5264 70.6449L36.3161 53.6007L57.7878 49.1628ZM15.0409 41.1063L32.1202 52.2083L19.3113 68.0401C15.0575 63.9042 12.4133 58.1194 12.4133 51.7242C12.4133 47.8904 13.363 44.278 15.0409 41.1063ZM56.9519 45.1097L35.5857 49.5249L17.3002 37.6387C21.4671 32.3587 27.9264 28.9656 35.1719 28.9656C45.4319 28.9656 54.1175 35.7704 56.9519 45.1097Z" fill="black"/>
</svg>
