<svg width="104" height="120" viewBox="0 0 104 120" fill="none" xmlns="http://www.w3.org/2000/svg">
<path fill-rule="evenodd" clip-rule="evenodd" d="M41.032 102.3L33.5217 91.0345L41.032 79.769C41.6651 78.8173 41.4086 77.5324 40.4589 76.8993C39.5072 76.2662 38.2224 76.5228 37.5893 77.4724L29.3134 89.8862C28.85 90.5814 28.85 91.4876 29.3134 92.1828L37.5893 104.597C38.2224 105.546 39.5072 105.803 40.4589 105.17C41.4086 104.537 41.6651 103.252 41.032 102.3Z" fill="black"/>
<path fill-rule="evenodd" clip-rule="evenodd" d="M65.8594 104.597L74.1353 92.1828C74.5987 91.4876 74.5987 90.5814 74.1353 89.8862L65.8594 77.4724C65.2263 76.5228 63.9415 76.2662 62.9898 76.8993C62.0401 77.5324 61.7836 78.8173 62.4167 79.769L69.927 91.0345L62.4167 102.3C61.7836 103.252 62.0401 104.537 62.9898 105.17C63.9415 105.803 65.2263 105.546 65.8594 104.597Z" fill="black"/>
<path fill-rule="evenodd" clip-rule="evenodd" d="M53.8995 77.967L45.6237 102.795C45.2637 103.877 45.8492 105.05 46.9333 105.412C48.0154 105.772 49.1885 105.186 49.5506 104.102L57.8265 79.2746C58.1865 78.1926 57.6009 77.0195 56.5168 76.6574C55.4347 76.2974 54.2616 76.8829 53.8995 77.967Z" fill="black"/>
<path fill-rule="evenodd" clip-rule="evenodd" d="M51.7243 0C35.7374 0 22.7588 12.9786 22.7588 28.9655C22.7588 44.9524 35.7374 57.931 51.7243 57.931C67.7112 57.931 80.6898 44.9524 80.6898 28.9655C80.6898 12.9786 67.7112 0 51.7243 0ZM51.7243 4.13793C65.4271 4.13793 76.5519 15.2628 76.5519 28.9655C76.5519 42.6683 65.4271 53.7931 51.7243 53.7931C38.0215 53.7931 26.8967 42.6683 26.8967 28.9655C26.8967 15.2628 38.0215 4.13793 51.7243 4.13793Z" fill="black"/>
<path fill-rule="evenodd" clip-rule="evenodd" d="M16.5517 76.9841C6.38276 87.18 0 101.754 0 117.931C0 119.073 0.926897 120 2.06897 120H101.379C102.521 120 103.448 119.073 103.448 117.931C103.448 101.754 97.0655 87.18 86.8965 76.9841V68.2759C86.8965 64.8476 84.1179 62.069 80.6897 62.069C68.8014 62.069 34.6469 62.069 22.7586 62.069C19.3303 62.069 16.5517 64.8476 16.5517 68.2759V76.9841ZM86.8965 83.1103V115.862H99.2731C98.8159 103.277 94.2145 91.8352 86.8965 83.1103ZM82.7586 68.2759V115.862H20.6897V68.2759C20.6897 67.1338 21.6166 66.2069 22.7586 66.2069C34.6469 66.2069 68.8014 66.2069 80.6897 66.2069C81.8317 66.2069 82.7586 67.1338 82.7586 68.2759ZM16.5517 115.862V83.1103C9.23379 91.8352 4.63241 103.277 4.17517 115.862H16.5517Z" fill="black"/>
</svg>
