<svg width="166" height="120" viewBox="0 0 166 120" fill="none" xmlns="http://www.w3.org/2000/svg">
<path d="M151.429 17.1428C153.007 17.1428 154.286 15.8636 154.286 14.2856C154.286 12.7077 153.007 11.4285 151.429 11.4285C149.851 11.4285 148.572 12.7077 148.572 14.2856C148.572 15.8636 149.851 17.1428 151.429 17.1428Z" fill="black"/>
<path d="M140 17.1428C141.578 17.1428 142.857 15.8636 142.857 14.2856C142.857 12.7077 141.578 11.4285 140 11.4285C138.422 11.4285 137.143 12.7077 137.143 14.2856C137.143 15.8636 138.422 17.1428 140 17.1428Z" fill="black"/>
<path d="M128.571 17.1428C130.149 17.1428 131.429 15.8636 131.429 14.2856C131.429 12.7077 130.149 11.4285 128.571 11.4285C126.994 11.4285 125.714 12.7077 125.714 14.2856C125.714 15.8636 126.994 17.1428 128.571 17.1428Z" fill="black"/>
<path fill-rule="evenodd" clip-rule="evenodd" d="M8.57143 120H157.143C161.877 120 165.714 116.163 165.714 111.429V8.57143C165.714 3.83714 161.877 0 157.143 0H8.57143C3.83714 0 0 3.83714 0 8.57143V111.429C0 116.163 3.83714 120 8.57143 120ZM160 28.5714V111.429C160 113.006 158.72 114.286 157.143 114.286H8.57143C6.99429 114.286 5.71429 113.006 5.71429 111.429V28.5714H160ZM160 22.8571H5.71429V8.57143C5.71429 6.99429 6.99429 5.71429 8.57143 5.71429H157.143C158.72 5.71429 160 6.99429 160 8.57143V22.8571Z" fill="black"/>
<path fill-rule="evenodd" clip-rule="evenodd" d="M74.2859 37.1429C74.2859 35.5658 73.0059 34.2858 71.4287 34.2858H14.2859C12.7087 34.2858 11.4287 35.5658 11.4287 37.1429V105.714C11.4287 107.291 12.7087 108.571 14.2859 108.571H71.4287C73.0059 108.571 74.2859 107.291 74.2859 105.714V37.1429ZM68.5716 40.0001V102.857H17.143V40.0001H68.5716Z" fill="black"/>
<path fill-rule="evenodd" clip-rule="evenodd" d="M154.286 37.1429C154.286 35.5658 153.006 34.2858 151.429 34.2858H82.8571C81.28 34.2858 80 35.5658 80 37.1429V65.7143C80 67.2915 81.28 68.5715 82.8571 68.5715H151.429C153.006 68.5715 154.286 67.2915 154.286 65.7143V37.1429ZM148.571 40.0001V62.8572H85.7143V40.0001H148.571Z" fill="black"/>
<path fill-rule="evenodd" clip-rule="evenodd" d="M154.286 77.1428C154.286 75.5656 153.006 74.2856 151.429 74.2856H82.8571C81.28 74.2856 80 75.5656 80 77.1428V105.714C80 107.291 81.28 108.571 82.8571 108.571H151.429C153.006 108.571 154.286 107.291 154.286 105.714V77.1428ZM148.571 79.9999V102.857H85.7143V79.9999H148.571Z" fill="black"/>
</svg>
