<svg width="83" height="120" viewBox="0 0 83 120" fill="none" xmlns="http://www.w3.org/2000/svg">
<path fill-rule="evenodd" clip-rule="evenodd" d="M55.9137 79.1999C58.5681 79.1999 60.2601 78.5495 61.4001 77.6495C62.6721 76.6463 63.3657 75.2734 63.7185 73.6199C64.0041 72.2807 64.0401 70.7087 64.2585 69.1127C64.4865 67.4279 64.9473 65.6663 66.8481 64.3943C67.5153 63.9503 67.9137 63.1991 67.9137 62.3975C67.9137 61.5959 67.5129 60.8471 66.8457 60.4031C64.9449 59.1359 64.4865 57.3767 64.2585 55.6943C64.0401 54.0959 64.0041 52.5239 63.7185 51.1823C63.3657 49.5287 62.6721 48.1559 61.4001 47.1527C60.2601 46.2527 58.5681 45.5999 55.9137 45.5999C54.5889 45.5999 53.5137 46.6751 53.5137 47.9999C53.5137 49.3247 54.5889 50.3999 55.9137 50.3999C57.0297 50.3999 57.8097 50.5103 58.3401 50.8559C58.9089 51.2303 58.9881 51.8903 59.0985 52.5911C59.2449 53.4911 59.2953 54.4847 59.4009 55.5023C59.6505 57.8711 60.1761 60.3119 61.9281 62.4023C60.1761 64.4927 59.6505 66.9359 59.4009 69.3023C59.2953 70.3199 59.2449 71.3135 59.0985 72.2135C58.9881 72.9119 58.9113 73.5719 58.3401 73.9439C57.8121 74.2895 57.0297 74.3999 55.9137 74.3999C54.5889 74.3999 53.5137 75.4751 53.5137 76.7999C53.5137 78.1247 54.5889 79.1999 55.9137 79.1999Z" fill="black"/>
<path fill-rule="evenodd" clip-rule="evenodd" d="M27.1143 74.3999C25.9983 74.3999 25.2159 74.2895 24.6879 73.9439C24.1167 73.5719 24.0399 72.9119 23.9295 72.2135C23.7831 71.3135 23.7327 70.3199 23.6271 69.3023C23.3775 66.9359 22.8519 64.4927 21.0999 62.4023C22.8519 60.3119 23.3775 57.8711 23.6271 55.5023C23.7327 54.4847 23.7831 53.4911 23.9295 52.5911C24.0399 51.8903 24.1191 51.2303 24.6879 50.8559C25.2183 50.5103 25.9983 50.3999 27.1143 50.3999C28.4391 50.3999 29.5143 49.3247 29.5143 47.9999C29.5143 46.6751 28.4391 45.5999 27.1143 45.5999C24.4599 45.5999 22.7679 46.2527 21.6279 47.1527C20.3559 48.1559 19.6623 49.5287 19.3095 51.1823C19.0239 52.5239 18.9879 54.0959 18.7695 55.6943C18.5415 57.3767 18.0831 59.1359 16.1823 60.4031C15.5151 60.8471 15.1143 61.5959 15.1143 62.3975C15.1143 63.1991 15.5127 63.9503 16.1799 64.3943C18.0807 65.6663 18.5415 67.4279 18.7695 69.1127C18.9879 70.7087 19.0239 72.2807 19.3095 73.6199C19.6623 75.2734 20.3559 76.6463 21.6279 77.6495C22.7679 78.5495 24.4599 79.1999 27.1143 79.1999C28.4391 79.1999 29.5143 78.1247 29.5143 76.7999C29.5143 75.4751 28.4391 74.3999 27.1143 74.3999Z" fill="black"/>
<path fill-rule="evenodd" clip-rule="evenodd" d="M44.0361 47.2417L34.4361 76.0416C34.0185 77.2968 34.6977 78.6577 35.9553 79.0777C37.2105 79.4953 38.5713 78.8161 38.9913 77.5585L48.5913 48.7585C49.0089 47.5033 48.3297 46.1425 47.0721 45.7225C45.8169 45.3049 44.4561 45.9841 44.0361 47.2417Z" fill="black"/>
<path fill-rule="evenodd" clip-rule="evenodd" d="M55.2112 0.703201C54.7624 0.252001 54.1504 0 53.5144 0H7.91436C6.01596 0 4.19915 0.7296 2.85755 2.0184C1.47995 3.3408 0.714355 5.1384 0.714355 7.008V112.992C0.714355 114.862 1.47995 116.659 2.85755 117.982C4.19915 119.27 6.01596 120 7.91436 120H75.1144C77.0128 120 78.8296 119.27 80.1712 117.982C81.5488 116.659 82.3144 114.862 82.3144 112.992V28.8C82.3144 28.164 82.0624 27.552 81.6112 27.1032L55.2112 0.703201ZM77.5144 108V112.992C77.5144 113.566 77.2696 114.113 76.8472 114.518C76.3888 114.96 75.7624 115.2 75.1144 115.2H7.91436C7.26636 115.2 6.63996 114.96 6.18156 114.518C5.75916 114.113 5.51436 113.566 5.51436 112.992V108H77.5144ZM51.1144 4.8H7.91436C7.26636 4.8 6.63996 5.04 6.18156 5.4816C5.75916 5.8872 5.51436 6.4344 5.51436 7.008V103.2H77.5144V31.2H58.3144C56.404 31.2 54.5728 30.4416 53.224 29.0904C51.8728 27.7416 51.1144 25.9104 51.1144 24V4.8ZM55.9144 8.1936V24C55.9144 24.636 56.1664 25.248 56.6176 25.6968C57.0664 26.148 57.6784 26.4 58.3144 26.4H74.1208L55.9144 8.1936Z" fill="black"/>
</svg>
