<svg width="96" height="96" viewBox="0 0 96 96" fill="none" xmlns="http://www.w3.org/2000/svg">
<path d="M48 84L42.2 78.8C35.4667 72.7333 29.9 67.5 25.5 63.1C21.1 58.7 17.6 54.75 15 51.25C12.4 47.75 10.5833 44.5333 9.55 41.6C8.51667 38.6667 8 35.6667 8 32.6C8 26.3333 10.1 21.1 14.3 16.9C18.5 12.7 23.7333 10.6 30 10.6C33.4667 10.6 36.7667 11.3333 39.9 12.8C43.0333 14.2667 45.7333 16.3333 48 19C50.2667 16.3333 52.9667 14.2667 56.1 12.8C59.2333 11.3333 62.5333 10.6 66 10.6C72.2667 10.6 77.5 12.7 81.7 16.9C85.9 21.1 88 26.3333 88 32.6C88 35.6667 87.4833 38.6667 86.45 41.6C85.4167 44.5333 83.6 47.75 81 51.25C78.4 54.75 74.9 58.7 70.5 63.1C66.1 67.5 60.5333 72.7333 53.8 78.8L48 84ZM48 73.2C54.4 67.4667 59.6667 62.55 63.8 58.45C67.9333 54.35 71.2 50.7833 73.6 47.75C76 44.7167 77.6667 42.0167 78.6 39.65C79.5333 37.2833 80 34.9333 80 32.6C80 28.6 78.6667 25.2667 76 22.6C73.3333 19.9333 70 18.6 66 18.6C62.8667 18.6 59.9667 19.4833 57.3 21.25C54.6333 23.0167 52.8 25.2667 51.8 28H44.2C43.2 25.2667 41.3667 23.0167 38.7 21.25C36.0333 19.4833 33.1333 18.6 30 18.6C26 18.6 22.6667 19.9333 20 22.6C17.3333 25.2667 16 28.6 16 32.6C16 34.9333 16.4667 37.2833 17.4 39.65C18.3333 42.0167 20 44.7167 22.4 47.75C24.8 50.7833 28.0667 54.35 32.2 58.45C36.3333 62.55 41.6 67.4667 48 73.2Z" fill="black"/>
</svg>
