<svg width="96" height="96" viewBox="0 0 96 96" fill="none" xmlns="http://www.w3.org/2000/svg">
<path d="M48 48C43.6 48 39.8333 46.4333 36.7 43.3C33.5667 40.1667 32 36.4 32 32C32 27.6 33.5667 23.8333 36.7 20.7C39.8333 17.5667 43.6 16 48 16C52.4 16 56.1667 17.5667 59.3 20.7C62.4333 23.8333 64 27.6 64 32C64 36.4 62.4333 40.1667 59.3 43.3C56.1667 46.4333 52.4 48 48 48ZM16 80V68.8C16 66.5333 16.5833 64.45 17.75 62.55C18.9167 60.65 20.4667 59.2 22.4 58.2C26.5333 56.1333 30.7333 54.5833 35 53.55C39.2667 52.5167 43.6 52 48 52C52.4 52 56.7333 52.5167 61 53.55C65.2667 54.5833 69.4667 56.1333 73.6 58.2C75.5333 59.2 77.0833 60.65 78.25 62.55C79.4167 64.45 80 66.5333 80 68.8V80H16ZM24 72H72V68.8C72 68.0667 71.8167 67.4 71.45 66.8C71.0833 66.2 70.6 65.7333 70 65.4C66.4 63.6 62.7667 62.25 59.1 61.35C55.4333 60.45 51.7333 60 48 60C44.2667 60 40.5667 60.45 36.9 61.35C33.2333 62.25 29.6 63.6 26 65.4C25.4 65.7333 24.9167 66.2 24.55 66.8C24.1833 67.4 24 68.0667 24 68.8V72ZM48 40C50.2 40 52.0833 39.2167 53.65 37.65C55.2167 36.0833 56 34.2 56 32C56 29.8 55.2167 27.9167 53.65 26.35C52.0833 24.7833 50.2 24 48 24C45.8 24 43.9167 24.7833 42.35 26.35C40.7833 27.9167 40 29.8 40 32C40 34.2 40.7833 36.0833 42.35 37.65C43.9167 39.2167 45.8 40 48 40Z" fill="black"/>
</svg>
